<svg width="249" height="48" viewBox="0 0 249 48" fill="none" xmlns="http://www.w3.org/2000/svg">
<g clip-path="url(#clip0_770_2363)">
<path d="M0 18.5366L0.473176 19.2579C0.473176 19.2579 24.678 2.01972 75.781 2.95737V0.072317C75.781 0.072317 34.6147 -2.30785 0 18.5366Z" fill="#FFA600"/>
<path d="M13.7948 30.87H23.7679C26.243 30.87 27.2621 31.7355 27.2621 33.8272C27.2621 35.6304 26.6434 36.7483 23.5495 36.7483H7.02475V40.1743H24.0955C29.264 40.1743 31.4479 38.3351 31.4479 34.0436C31.4479 29.7521 29.1912 27.444 24.5323 27.444H14.3044C11.6473 27.444 10.5918 26.6146 10.5918 24.5229C10.5918 22.4313 11.6837 21.6739 14.3044 21.6739H30.6108V18.2479H13.7948C8.84466 18.2479 6.44238 20.2675 6.44238 24.4147C6.44238 27.3719 7.71632 30.87 13.7948 30.87Z" fill="#005981"/>
<path d="M57.5089 36.568H44.9515C40.2561 36.568 38.1814 34.26 38.1814 29.139C38.1814 24.018 40.2561 21.7461 44.9515 21.7461H57.5089V18.1758H44.4783C37.3807 18.1758 33.9229 21.7461 33.9229 29.139C33.9229 36.5319 37.3807 40.1382 44.4783 40.1382H57.5089V36.568Z" fill="#005981"/>
<path d="M65.626 10.3501H61.3311V32.2404C61.3311 39.0564 64.4249 40.1743 71.8137 40.1743H74.8712V36.7844H72.1049C66.7908 36.7844 65.6624 35.9549 65.6624 32.1322V21.6739H75.3444V18.2479H65.6624V10.3862L65.626 10.3501Z" fill="#005981"/>
<path d="M106.793 18.2479H94.8176V10.3501H90.6318V29.4996C90.6318 36.7844 94.0169 40.1743 101.26 40.1743H106.829C114.363 40.1743 118.513 36.2795 118.513 29.1751C118.513 22.0706 114.363 18.2479 106.829 18.2479H106.793ZM94.8176 21.7461H106.429C111.67 21.7461 114.363 24.2344 114.363 29.1751C114.363 34.1157 111.706 36.7122 106.429 36.7122H101.369C96.7103 36.7122 94.8176 34.6206 94.8176 29.4275V21.7461Z" fill="#FFA600"/>
<path d="M137.258 18.2119H123.099V21.6018H135.292C141.116 21.6018 143.3 22.8279 143.882 26.6146H128.558C124.336 26.6146 122.298 28.7784 122.298 33.1781C122.298 37.5778 124.409 40.1743 128.558 40.1743H148.177V29.2111C148.177 21.3854 145.01 18.2119 137.221 18.2119H137.258ZM129.468 36.7844C127.357 36.7844 126.302 35.5943 126.302 33.1059C126.302 30.6176 127.212 29.716 129.468 29.716H144.1V36.7483H129.468V36.7844Z" fill="#FFA600"/>
<path d="M168.815 18.2119H152.436V40.1743H156.512V21.71H168.378C172.673 21.71 174.93 24.018 174.93 28.3817V40.1743H179.043V28.3817C179.043 21.8182 175.403 18.2119 168.815 18.2119Z" fill="#FFA600"/>
<path d="M200.445 18.2119H194.876C187.342 18.2119 183.192 21.9624 183.192 28.8144C183.192 35.6664 187.233 39.2367 194.876 39.2367H206.888V39.7055C206.888 43.7446 205.541 44.6101 199.353 44.6101H185.121V48.0361H200.627C208.817 48.0361 211.073 46.269 211.073 39.8497V27.6243C211.073 21.6379 207.179 18.2479 200.409 18.2479L200.445 18.2119ZM195.277 35.8828C190.035 35.8828 187.378 33.5026 187.378 28.8144C187.378 24.1262 190.035 21.6379 195.277 21.6379H199.826C204.522 21.6379 206.924 23.5853 206.924 27.444V35.8828H195.277Z" fill="#FFA600"/>
<path d="M219.518 10.3501H215.187V40.1743H219.518V10.3501Z" fill="#FFA600"/>
<path d="M238.044 18.2119H223.922V21.6018H236.115C241.939 21.6018 244.086 22.8279 244.705 26.6146H229.418C225.196 26.6146 223.157 28.7784 223.157 33.1781C223.157 37.5778 225.268 40.1743 229.418 40.1743H249V29.2111C249 21.3854 245.833 18.2119 238.08 18.2119H238.044ZM230.255 36.7844C228.144 36.7844 227.125 35.5943 227.125 33.1059C227.125 30.6176 228.035 29.716 230.255 29.716H244.887V36.7483H230.255V36.7844Z" fill="#FFA600"/>
</g>
<defs>
<clipPath id="clip0_770_2363">
<rect width="249" height="48" fill="white"/>
</clipPath>
</defs>
</svg>
