<svg width="16" height="12" viewBox="0 0 16 12" fill="none" xmlns="http://www.w3.org/2000/svg">
<rect width="16" height="12" rx="2.52" fill="white"/>
<path d="M1 5.42635L1.08742 5.5596C1.08742 5.5596 5.55908 2.37497 15 2.54819V2.0152C15 2.0152 7.39481 1.57548 1 5.42635Z" fill="#FFA600"/>
<path d="M3.54874 7.70486H5.3912C5.84845 7.70486 6.03673 7.86475 6.03673 8.25117C6.03673 8.58429 5.92242 8.79083 5.35085 8.79083H2.29802V9.42376H5.45172C6.40657 9.42376 6.81003 9.08397 6.81003 8.29115C6.81003 7.49832 6.39312 7.07193 5.53241 7.07193H3.64288C3.15201 7.07193 2.957 6.91869 2.957 6.53227C2.957 6.14585 3.15873 6.00594 3.64288 6.00594H6.65537V5.37302H3.54874C2.63423 5.37302 2.19043 5.74611 2.19043 6.51229C2.19043 7.0586 2.42578 7.70486 3.54874 7.70486Z" fill="#005981"/>
<path d="M11.624 8.75751H9.30407C8.43663 8.75751 8.05335 8.33112 8.05335 7.38506C8.05335 6.439 8.43663 6.01927 9.30407 6.01927H11.624V5.35969H9.21665C7.90541 5.35969 7.2666 6.01927 7.2666 7.38506C7.2666 8.75085 7.90541 9.41709 9.21665 9.41709H11.624V8.75751Z" fill="#005981"/>
<path d="M13.1235 3.91394H12.3301V7.95802C12.3301 9.21721 12.9016 9.42375 14.2667 9.42375H14.8315V8.79748H14.3205C13.3387 8.79748 13.1303 8.64425 13.1303 7.93803V6.00593H14.9189V5.37301H13.1303V3.9206L13.1235 3.91394Z" fill="#005981"/>
</svg>
